<svg width="217" height="82" viewBox="0 0 217 82" fill="none" xmlns="http://www.w3.org/2000/svg">
<path d="M40 2.99997L6 24.25L40 45.5" stroke="#8F00FF" stroke-width="6"/>
<path d="M177 70.5L211 49.25L177 28" stroke="#8F00FF" stroke-width="6"/>
<path d="M168 23L143 80.1428" stroke="#8F00FF" stroke-width="6"/>
<path d="M22.2 27H31.8V28.48H27.82V39.52H31.8V41H22.2V39.52H26.16V28.48H22.2V27ZM39.0322 39.06H39.2522L42.3922 31H44.1322L39.9122 41H38.1522L33.8522 31H35.6922L39.0322 39.06ZM47.1444 31.78C47.7177 31.4466 48.3644 31.2066 49.0844 31.06C49.8044 30.9133 50.511 30.84 51.2044 30.84C51.8844 30.84 52.4377 30.9466 52.8644 31.16C53.3044 31.3733 53.6444 31.6533 53.8844 32C54.1377 32.3333 54.3044 32.72 54.3844 33.16C54.4777 33.5866 54.5244 34.02 54.5244 34.46C54.5244 34.9666 54.511 35.5066 54.4844 36.08C54.4577 36.6533 54.4377 37.2266 54.4244 37.8C54.4244 38.4666 54.4644 39.1 54.5444 39.7H55.8844V41H53.2244L53.0444 39.5H52.9444C52.8644 39.62 52.7444 39.7733 52.5844 39.96C52.4244 40.1466 52.211 40.3333 51.9444 40.52C51.691 40.6933 51.3777 40.8466 51.0044 40.98C50.631 41.1133 50.191 41.18 49.6844 41.18C48.6977 41.18 47.9177 40.9266 47.3444 40.42C46.771 39.9133 46.4844 39.22 46.4844 38.34C46.4844 37.66 46.631 37.0933 46.9244 36.64C47.231 36.1866 47.6644 35.84 48.2244 35.6C48.7844 35.36 49.4577 35.22 50.2444 35.18C51.0444 35.14 51.9377 35.1933 52.9244 35.34C52.991 34.7266 52.9977 34.22 52.9444 33.82C52.9044 33.4066 52.7977 33.08 52.6244 32.84C52.4644 32.6 52.231 32.4333 51.9244 32.34C51.631 32.2333 51.2644 32.18 50.8244 32.18C50.2244 32.18 49.651 32.2666 49.1044 32.44C48.5577 32.6 48.071 32.7666 47.6444 32.94L47.1444 31.78ZM50.0844 39.84C50.4577 39.84 50.8044 39.78 51.1244 39.66C51.4444 39.54 51.7244 39.3866 51.9644 39.2C52.2044 39.0133 52.4044 38.8133 52.5644 38.6C52.7244 38.3733 52.8444 38.16 52.9244 37.96V36.56C52.231 36.44 51.591 36.38 51.0044 36.38C50.4177 36.38 49.911 36.4466 49.4844 36.58C49.0577 36.7 48.7244 36.8933 48.4844 37.16C48.2444 37.4266 48.1244 37.7733 48.1244 38.2C48.1244 38.64 48.271 39.0266 48.5644 39.36C48.871 39.68 49.3777 39.84 50.0844 39.84ZM58.8366 34.5C58.8366 34.38 58.8299 34.2266 58.8166 34.04C58.8166 33.84 58.8099 33.64 58.7966 33.44C58.7832 33.2266 58.7632 33.02 58.7366 32.82C58.7232 32.62 58.7032 32.4466 58.6766 32.3H57.3366V31H60.0166L60.1966 32.62H60.2966C60.4299 32.3933 60.6032 32.1733 60.8166 31.96C61.0432 31.7333 61.3032 31.5333 61.5966 31.36C61.8899 31.1733 62.2166 31.0266 62.5766 30.92C62.9366 30.8133 63.3166 30.76 63.7166 30.76C64.3299 30.76 64.8699 30.8266 65.3366 30.96C65.8166 31.0933 66.2099 31.3333 66.5166 31.68C66.8366 32.0133 67.0766 32.4733 67.2366 33.06C67.3966 33.6333 67.4766 34.3666 67.4766 35.26V41H65.9166V35.56C65.9166 34.4533 65.7366 33.62 65.3766 33.06C65.0166 32.5 64.3632 32.22 63.4166 32.22C63.0699 32.22 62.7299 32.2933 62.3966 32.44C62.0766 32.5733 61.7832 32.7533 61.5166 32.98C61.2499 33.2066 61.0166 33.4733 60.8166 33.78C60.6166 34.0733 60.4699 34.3866 60.3766 34.72V41H58.8366V34.5ZM70.1088 36C70.1088 34.3866 70.5288 33.1133 71.3688 32.18C72.2088 31.2333 73.4088 30.76 74.9688 30.76C75.8088 30.76 76.5288 30.9 77.1288 31.18C77.7421 31.4466 78.2488 31.8133 78.6488 32.28C79.0488 32.7466 79.3421 33.3 79.5287 33.94C79.7288 34.58 79.8288 35.2666 79.8288 36C79.8288 36.8 79.7221 37.5266 79.5088 38.18C79.2954 38.82 78.9821 39.3666 78.5688 39.82C78.1554 40.2733 77.6421 40.6266 77.0288 40.88C76.4288 41.12 75.7421 41.24 74.9688 41.24C74.1421 41.24 73.4221 41.1066 72.8088 40.84C72.1954 40.56 71.6888 40.1866 71.2888 39.72C70.8888 39.2533 70.5888 38.7 70.3888 38.06C70.2021 37.42 70.1088 36.7333 70.1088 36ZM71.7688 36C71.7688 36.4666 71.8221 36.9333 71.9288 37.4C72.0488 37.8666 72.2354 38.2866 72.4888 38.66C72.7421 39.0333 73.0688 39.3333 73.4688 39.56C73.8821 39.7866 74.3821 39.9 74.9688 39.9C76.0354 39.9 76.8354 39.5733 77.3688 38.92C77.9154 38.2533 78.1888 37.28 78.1888 36C78.1888 35.52 78.1288 35.0533 78.0088 34.6C77.9021 34.1333 77.7154 33.7133 77.4488 33.34C77.1954 32.9666 76.8621 32.6666 76.4488 32.44C76.0488 32.2133 75.5554 32.1 74.9688 32.1C73.9021 32.1 73.1021 32.4266 72.5688 33.08C72.0354 33.7333 71.7688 34.7066 71.7688 36ZM87.0009 39.06H87.2209L90.3609 31H92.1009L87.8809 41H86.1209L81.8209 31H83.6609L87.0009 39.06ZM94.5531 27C95.0598 26.9333 95.5865 26.8933 96.1331 26.88C96.6931 26.8533 97.1665 26.84 97.5531 26.84C98.7665 26.84 99.7798 27.0133 100.593 27.36C101.42 27.7066 102.08 28.1933 102.573 28.82C103.08 29.4333 103.44 30.1733 103.653 31.04C103.88 31.9066 103.993 32.86 103.993 33.9C103.993 34.8466 103.893 35.76 103.693 36.64C103.493 37.5066 103.146 38.28 102.653 38.96C102.16 39.6266 101.493 40.1666 100.653 40.58C99.8265 40.98 98.7865 41.18 97.5331 41.18C97.3598 41.18 97.1331 41.1733 96.8531 41.16C96.5731 41.16 96.2865 41.1466 95.9931 41.12C95.6998 41.1066 95.4198 41.0933 95.1531 41.08C94.8865 41.0666 94.6865 41.0466 94.5531 41.02V27ZM97.6331 28.32C97.4465 28.32 97.2065 28.3266 96.9131 28.34C96.6331 28.3533 96.3998 28.38 96.2131 28.42V39.62C96.2798 39.6333 96.3731 39.6466 96.4931 39.66C96.6265 39.66 96.7598 39.6666 96.8931 39.68C97.0265 39.68 97.1531 39.6866 97.2731 39.7C97.4065 39.7 97.5131 39.7 97.5931 39.7C98.5665 39.7 99.3531 39.54 99.9531 39.22C100.566 38.9 101.04 38.4733 101.373 37.94C101.706 37.3933 101.933 36.7733 102.053 36.08C102.173 35.3733 102.233 34.6466 102.233 33.9C102.233 33.2466 102.18 32.5933 102.073 31.94C101.966 31.2733 101.746 30.6733 101.413 30.14C101.093 29.6066 100.626 29.1733 100.013 28.84C99.4131 28.4933 98.6198 28.32 97.6331 28.32ZM115.525 39.74C115.285 39.9533 114.999 40.1533 114.665 40.34C114.345 40.5266 113.992 40.6866 113.605 40.82C113.219 40.9533 112.812 41.0533 112.385 41.12C111.972 41.2 111.552 41.24 111.125 41.24C110.325 41.24 109.619 41.12 109.005 40.88C108.392 40.6266 107.879 40.2733 107.465 39.82C107.052 39.3533 106.739 38.8 106.525 38.16C106.312 37.52 106.205 36.8 106.205 36C106.205 35.16 106.319 34.4133 106.545 33.76C106.785 33.1066 107.125 32.56 107.565 32.12C108.005 31.68 108.539 31.3466 109.165 31.12C109.792 30.88 110.492 30.76 111.265 30.76C111.825 30.76 112.379 30.8333 112.925 30.98C113.472 31.1266 113.952 31.4066 114.365 31.82C114.792 32.22 115.119 32.78 115.345 33.5C115.572 34.2066 115.652 35.1266 115.585 36.26H107.845C107.845 37.46 108.165 38.36 108.805 38.96C109.459 39.5466 110.325 39.84 111.405 39.84C111.765 39.84 112.119 39.8 112.465 39.72C112.825 39.6266 113.165 39.52 113.485 39.4C113.805 39.28 114.085 39.1466 114.325 39C114.579 38.8533 114.772 38.72 114.905 38.6L115.525 39.74ZM111.305 32.08C110.865 32.08 110.445 32.1266 110.045 32.22C109.659 32.3133 109.312 32.4733 109.005 32.7C108.712 32.9133 108.465 33.2 108.265 33.56C108.079 33.9066 107.959 34.34 107.905 34.86H114.125C114.059 33.98 113.772 33.3 113.265 32.82C112.772 32.3266 112.119 32.08 111.305 32.08ZM122.978 39.06H123.198L126.338 31H128.078L123.858 41H122.098L117.798 31H119.638L122.978 39.06ZM139.51 39.74C139.27 39.9533 138.983 40.1533 138.65 40.34C138.33 40.5266 137.976 40.6866 137.59 40.82C137.203 40.9533 136.796 41.0533 136.37 41.12C135.956 41.2 135.536 41.24 135.11 41.24C134.31 41.24 133.603 41.12 132.99 40.88C132.376 40.6266 131.863 40.2733 131.45 39.82C131.036 39.3533 130.723 38.8 130.51 38.16C130.296 37.52 130.19 36.8 130.19 36C130.19 35.16 130.303 34.4133 130.53 33.76C130.77 33.1066 131.11 32.56 131.55 32.12C131.99 31.68 132.523 31.3466 133.15 31.12C133.776 30.88 134.476 30.76 135.25 30.76C135.81 30.76 136.363 30.8333 136.91 30.98C137.456 31.1266 137.936 31.4066 138.35 31.82C138.776 32.22 139.103 32.78 139.33 33.5C139.556 34.2066 139.636 35.1266 139.57 36.26H131.83C131.83 37.46 132.15 38.36 132.79 38.96C133.443 39.5466 134.31 39.84 135.39 39.84C135.75 39.84 136.103 39.8 136.45 39.72C136.81 39.6266 137.15 39.52 137.47 39.4C137.79 39.28 138.07 39.1466 138.31 39C138.563 38.8533 138.756 38.72 138.89 38.6L139.51 39.74ZM135.29 32.08C134.85 32.08 134.43 32.1266 134.03 32.22C133.643 32.3133 133.296 32.4733 132.99 32.7C132.696 32.9133 132.45 33.2 132.25 33.56C132.063 33.9066 131.943 34.34 131.89 34.86H138.11C138.043 33.98 137.756 33.3 137.25 32.82C136.756 32.3266 136.103 32.08 135.29 32.08ZM143.302 27H146.622V37.64C146.622 38.4533 146.755 39.0266 147.022 39.36C147.302 39.6933 147.709 39.86 148.242 39.86C148.615 39.86 148.969 39.7933 149.302 39.66C149.649 39.5266 150.029 39.3 150.442 38.98L151.162 40.08C150.949 40.2666 150.715 40.4333 150.462 40.58C150.209 40.7266 149.949 40.8533 149.682 40.96C149.415 41.0533 149.149 41.1266 148.882 41.18C148.615 41.2333 148.369 41.26 148.142 41.26C147.649 41.26 147.209 41.1933 146.822 41.06C146.435 40.94 146.109 40.74 145.842 40.46C145.589 40.18 145.395 39.8133 145.262 39.36C145.129 38.8933 145.062 38.32 145.062 37.64V28.34H143.302V27ZM154.054 36C154.054 34.3866 154.474 33.1133 155.314 32.18C156.154 31.2333 157.354 30.76 158.914 30.76C159.754 30.76 160.474 30.9 161.074 31.18C161.687 31.4466 162.194 31.8133 162.594 32.28C162.994 32.7466 163.287 33.3 163.474 33.94C163.674 34.58 163.774 35.2666 163.774 36C163.774 36.8 163.667 37.5266 163.454 38.18C163.241 38.82 162.927 39.3666 162.514 39.82C162.101 40.2733 161.587 40.6266 160.974 40.88C160.374 41.12 159.687 41.24 158.914 41.24C158.087 41.24 157.367 41.1066 156.754 40.84C156.141 40.56 155.634 40.1866 155.234 39.72C154.834 39.2533 154.534 38.7 154.334 38.06C154.147 37.42 154.054 36.7333 154.054 36ZM155.714 36C155.714 36.4666 155.767 36.9333 155.874 37.4C155.994 37.8666 156.181 38.2866 156.434 38.66C156.687 39.0333 157.014 39.3333 157.414 39.56C157.827 39.7866 158.327 39.9 158.914 39.9C159.981 39.9 160.781 39.5733 161.314 38.92C161.861 38.2533 162.134 37.28 162.134 36C162.134 35.52 162.074 35.0533 161.954 34.6C161.847 34.1333 161.661 33.7133 161.394 33.34C161.141 32.9666 160.807 32.6666 160.394 32.44C159.994 32.2133 159.501 32.1 158.914 32.1C157.847 32.1 157.047 32.4266 156.514 33.08C155.981 33.7333 155.714 34.7066 155.714 36ZM166.826 34.5C166.826 34.38 166.82 34.2266 166.806 34.04C166.806 33.84 166.8 33.64 166.786 33.44C166.773 33.2266 166.753 33.02 166.726 32.82C166.713 32.62 166.693 32.4466 166.666 32.3H165.326V31H167.986L168.186 32.4H168.286C168.646 31.9333 169.1 31.5466 169.646 31.24C170.206 30.92 170.886 30.76 171.686 30.76C173.113 30.76 174.186 31.1533 174.906 31.94C175.626 32.7266 175.986 34.0133 175.986 35.8C175.986 36.64 175.86 37.4 175.606 38.08C175.366 38.7466 175.02 39.3133 174.566 39.78C174.113 40.2466 173.566 40.6066 172.926 40.86C172.286 41.1133 171.58 41.24 170.806 41.24C170.526 41.24 170.273 41.2266 170.046 41.2C169.833 41.1866 169.633 41.16 169.446 41.12C169.273 41.0933 169.1 41.0533 168.926 41C168.753 40.9466 168.566 40.88 168.366 40.8V45H166.826V34.5ZM171.426 32.22C171.026 32.22 170.646 32.2933 170.286 32.44C169.94 32.5866 169.626 32.78 169.346 33.02C169.08 33.26 168.86 33.5266 168.686 33.82C168.513 34.1133 168.406 34.4066 168.366 34.7V39.26C168.66 39.46 168.986 39.62 169.346 39.74C169.72 39.8466 170.206 39.9 170.806 39.9C171.873 39.9 172.726 39.5533 173.366 38.86C174.006 38.1533 174.326 37.1266 174.326 35.78C174.326 34.6466 174.1 33.7733 173.646 33.16C173.206 32.5333 172.466 32.22 171.426 32.22Z" fill="white"/>
<path d="M9.9 34.9V34.32L19.32 28.58L20.08 29.82L12.14 34.52L20.1 39.14L19.34 40.34L9.9 34.9Z" fill="white"/>
<path d="M186.02 26.76L187.28 27.32L179.98 43.8L178.72 43.24L186.02 26.76ZM190.652 40.34L189.892 39.14L197.852 34.52L189.912 29.82L190.672 28.58L200.092 34.32V34.9L190.652 40.34Z" fill="white"/>
</svg>
